<svg xmlns="http://www.w3.org/2000/svg" viewBox="0 0 512 512" role="img" aria-label="Roleta da Turma">
  <rect width="512" height="512" fill="#0f766e"/>
  <circle cx="256" cy="272" r="156" fill="#ffffff"/>
  <path d="M256 116a156 156 0 0 1 135.1 78L256 272Z" fill="#14b8a6"/>
  <path d="M391.1 194A156 156 0 0 1 391.1 350L256 272Z" fill="#f59e0b"/>
  <path d="M391.1 350A156 156 0 0 1 256 428V272Z" fill="#0e7490"/>
  <path d="M256 428A156 156 0 0 1 120.9 350L256 272Z" fill="#be123c"/>
  <path d="M120.9 350A156 156 0 0 1 120.9 194L256 272Z" fill="#334155"/>
  <path d="M120.9 194A156 156 0 0 1 256 116V272Z" fill="#ffffff"/>
  <circle cx="256" cy="272" r="50" fill="#0f766e"/>
  <path d="M256 64 302 142H210Z" fill="#f59e0b"/>
  <text x="256" y="293" text-anchor="middle" font-family="Arial, sans-serif" font-size="58" font-weight="800" fill="#ffffff">R</text>
</svg>
